<?xml version="1.0" encoding="iso-8859-1"?>
<!-- Uploaded to: SVG Repo, www.svgrepo.com, Generator: SVG Repo Mixer Tools -->
<svg height="800px" width="800px" version="1.1" id="Layer_1" xmlns="http://www.w3.org/2000/svg" xmlns:xlink="http://www.w3.org/1999/xlink" 
	 viewBox="0 0 512 512" xml:space="preserve">
<g transform="translate(1 1)">
	<g>
		<path style="fill:#FFDD09;" d="M255,400.067L255,400.067c-9.387,0-17.067-7.68-17.067-17.067v-51.2h34.133V383
			C272.067,392.387,264.387,400.067,255,400.067"/>
		<path style="fill:#FFDD09;" d="M296.813,365.933h-24.747v16.213c0,8.533-5.973,16.213-14.507,17.92
			c-10.24,1.707-19.627-6.827-19.627-17.067v-17.067h-24.747c-14.507,0-26.453,11.947-26.453,26.453V485.4
			c0,9.387,7.68,17.067,17.067,17.067h102.4c9.387,0,17.067-7.68,17.067-17.067v-93.013
			C323.267,377.88,311.32,365.933,296.813,365.933"/>
	</g>
	<path style="fill:#FFFFFF;" d="M212.333,485.4v-93.013c0-14.507,11.093-25.6,25.6-26.453l0,0h-24.747
		c-14.507,0-26.453,11.947-26.453,26.453V485.4c0,9.387,7.68,17.067,17.067,17.067h25.6
		C220.013,502.467,212.333,494.787,212.333,485.4"/>
	<path style="fill:#FD9808;" d="M296.813,365.933h-24.747l0,0c14.507,0.853,25.6,11.947,25.6,26.453V485.4
		c0,9.387-7.68,17.067-17.067,17.067h25.6c9.387,0,17.067-7.68,17.067-17.067v-93.013
		C323.267,377.88,311.32,365.933,296.813,365.933"/>
	<g>
		<polygon style="fill:#FFDD09;" points="289.133,58.733 255,92.867 220.867,58.733 220.867,7.533 289.133,7.533 		"/>
		<polygon style="fill:#FFDD09;" points="255,92.867 237.933,75.8 237.933,331.8 272.067,331.8 272.067,75.8 		"/>
	</g>
	<path d="M255,408.6c-14.507,0-25.6-11.093-25.6-25.6v-51.2c0-5.12,3.413-8.533,8.533-8.533h34.133c5.12,0,8.533,3.413,8.533,8.533
		V383C280.6,397.507,269.507,408.6,255,408.6z M246.467,340.333V383c0,5.12,3.413,8.533,8.533,8.533c5.12,0,8.533-3.413,8.533-8.533
		v-42.667H246.467z"/>
	<path d="M306.2,511H203.8c-14.507,0-25.6-11.093-25.6-25.6v-93.013c0-19.627,16.213-34.987,34.987-34.987h24.747
		c5.12,0,8.533,3.413,8.533,8.533V383c0,2.56,0.853,5.12,3.413,6.827c1.707,1.707,4.267,1.707,6.827,1.707
		c3.413-0.853,6.827-5.12,6.827-9.387v-16.213c0-5.12,3.413-8.533,8.533-8.533h24.747c19.627,0,34.987,16.213,34.987,34.987V485.4
		C331.8,499.907,320.707,511,306.2,511z M213.187,374.467c-9.387,0-17.92,8.533-17.92,17.92V485.4c0,5.12,3.413,8.533,8.533,8.533
		h102.4c5.12,0,8.533-3.413,8.533-8.533v-93.013c0-10.24-8.533-17.92-17.92-17.92H280.6v7.68c0,12.8-9.387,23.893-21.333,26.453
		c-7.68,0.853-15.36-0.853-20.48-5.973c-5.973-5.12-9.387-11.947-9.387-19.627v-8.533H213.187z"/>
	<path d="M255,101.4c-2.56,0-4.267-0.853-5.973-2.56l-34.133-34.133c-1.707-1.707-2.56-3.413-2.56-5.973v-51.2
		c0-5.12,3.413-8.533,8.533-8.533h68.267c5.12,0,8.533,3.413,8.533,8.533v51.2c0,2.56-0.853,4.267-2.56,5.973L260.973,98.84
		C259.267,100.547,257.56,101.4,255,101.4z M229.4,55.32l25.6,25.6l25.6-25.6V16.067h-51.2V55.32z M289.133,58.733L289.133,58.733
		L289.133,58.733z"/>
	<path d="M272.067,340.333h-34.133c-5.12,0-8.533-3.413-8.533-8.533v-256c0-3.413,1.707-6.827,5.12-7.68
		c3.413-1.707,6.827-0.853,9.387,1.707L255,80.92l11.093-11.093c2.56-2.56,5.973-3.413,9.387-1.707
		c3.413,0.853,5.12,4.267,5.12,7.68v256C280.6,336.92,277.187,340.333,272.067,340.333z M246.467,323.267h17.067V96.28l-2.56,2.56
		c-3.413,3.413-8.533,3.413-11.947,0l-2.56-2.56V323.267z"/>
</g>
</svg>